<?xml version="1.0" encoding="utf-8"?>
<!-- Generator: Adobe Illustrator 17.0.0, SVG Export Plug-In . SVG Version: 6.00 Build 0)  -->
<!DOCTYPE svg PUBLIC "-//W3C//DTD SVG 1.1//EN" "http://www.w3.org/Graphics/SVG/1.1/DTD/svg11.dtd">
<svg version="1.1" id="Layer_1" xmlns="http://www.w3.org/2000/svg" xmlns:xlink="http://www.w3.org/1999/xlink" x="0px" y="0px"
	 width="132px" height="24px" viewBox="0 0 132 24" enable-background="new 0 0 132 24" xml:space="preserve">
<path fill="#24242D" d="M5.205,16.528c0.09,1.59,1.44,2.91,3.57,2.91c2.01,0,3.33-1.05,3.42-2.49c0.09-1.35-0.84-2.25-2.85-2.82
	l-2.55-0.66c-3.479-1.02-5.22-2.939-5.22-5.76c0-1.77,0.66-3.24,2.01-4.35c1.35-1.14,3-1.71,4.95-1.71c2.01,0,3.63,0.57,4.919,1.71
	c1.29,1.11,1.95,2.64,1.95,4.53h-3.84c0-1.65-1.17-2.7-3.09-2.7c-1.77,0-3.09,0.99-3.09,2.43c0,1.14,0.81,1.92,2.46,2.37l2.55,0.75
	c4.29,1.17,5.85,3.54,5.64,6.3c-0.09,1.8-0.81,3.24-2.22,4.29c-1.38,1.05-3.06,1.56-5.04,1.56c-2.19,0-3.96-0.6-5.34-1.83
	s-2.07-2.73-2.07-4.53H5.205z"/>
<path fill="#24242D" d="M30.645,4.769c2.01-2.07,4.5-3.12,7.44-3.12s5.43,1.05,7.439,3.12c2.04,2.07,3.06,4.56,3.06,7.5
	c0,2.91-1.02,5.43-3.06,7.5c-2.04,2.07-4.53,3.09-7.439,3.09c-2.91,0-5.4-1.02-7.44-3.09c-2.01-2.07-3.03-4.59-3.03-7.5
	C27.615,9.328,28.635,6.838,30.645,4.769z M31.425,12.268c0,1.89,0.63,3.51,1.92,4.83c1.29,1.32,2.88,1.98,4.74,1.98
	s3.42-0.66,4.71-1.98c1.29-1.32,1.95-2.939,1.95-4.83s-0.66-3.51-1.95-4.83c-1.29-1.35-2.85-2.01-4.71-2.01s-3.45,0.66-4.74,2.01
	C32.055,8.758,31.425,10.378,31.425,12.268z"/>
<path fill="#24242D" d="M61.485,10.198h7.83c1.35,0,2.22-1.05,2.22-2.49c0-1.47-0.87-2.4-2.34-2.4h-7.709V1.889h8.1
	c3.63,0,5.939,2.16,5.939,5.609c0,1.71-0.81,3.3-2.729,4.02c1.199,0.3,2.13,0.93,2.819,1.89c0.69,0.96,1.021,1.95,1.021,2.939
	c0,1.74-0.601,3.21-1.771,4.41c-1.17,1.2-2.7,1.8-4.649,1.8h-8.73v-3.42h8.52c1.59,0,2.609-1.32,2.609-2.85
	c0-1.47-1.02-2.88-2.699-2.88h-8.43V10.198z"/>
<path fill="#24242D" d="M89.505,22.558V1.889h12.779v3.419h-8.97v5.37h7.859v3.39h-7.859v5.07h9.27v3.42H89.505z"/>
<path fill="#24242D" d="M130.573,22.558h-4.619l-4.86-7.35h-1.59v7.35h-3.84V1.889h8.279c2.13,0,3.78,0.66,4.891,1.979
	c1.14,1.29,1.71,2.88,1.71,4.71c0,1.59-0.45,3-1.351,4.23c-0.87,1.23-2.189,1.98-3.899,2.25L130.573,22.558z M119.504,5.308v6.48
	h4.14c1.891,0,2.91-1.5,2.91-3.21c0-1.68-0.99-3.27-2.79-3.27H119.504z"/>
</svg>
